<?xml version="1.0" encoding="utf-8"?>
<COLLADA xmlns="http://www.collada.org/2005/11/COLLADASchema" version="1.4.1" xmlns:xsi="http://www.w3.org/2001/XMLSchema-instance">
  <asset><unit name="meter" meter="1"/><up_axis>Z_UP</up_axis></asset>
  <library_materials><material id="Rejiband-material" name="Rejiband"><instance_effect url="#Rejiband-effect"/></material></library_materials>
  <library_effects><effect id="Rejiband-effect"><profile_COMMON><technique sid="common"><lambert>
    <diffuse><color sid="diffuse">0.8 0.8 0.82 1</color></diffuse></lambert></technique></profile_COMMON></effect></library_effects>
  <library_geometries>
    <geometry id="Tray-mesh" name="Tray"><mesh>
      <source id="Tray-positions"><float_array id="Tray-positions-array" count="468">-4.32599 5.02271 2.78 -4.47595 5.02628 2.78 -4.38026 9.05373 2.78 -4.22671 9.20146 2.78 -4.47595 5.02628 2.78 -4.47595 5.02628 2.85 -4.38026 9.05373 2.85 -4.38026 9.05373 2.78 -4.32599 5.02271 2.78 -4.32599 5.02271 2.85 -4.22671 9.20146 2.85 -4.22671 9.20146 2.78 -4.22671 9.20146 2.78 -4.38026 9.05373 2.78 -5.69289 9.07332 2.78 -5.84132 9.22555 2.78 -4.38026 9.05373 2.78 -4.38026 9.05373 2.85 -5.69289 9.07332 2.85 -5.69289 9.07332 2.78 -4.22671 9.20146 2.78 -4.22671 9.20146 2.85 -5.84132 9.22555 2.85 -5.84132 9.22555 2.78 -5.84132 9.22555 2.78 -5.69289 9.07332 2.78 -5.70594 7.81925 2.78 -5.85432 7.97571 2.78 -5.69289 9.07332 2.78 -5.69289 9.07332 2.85 -5.70594 7.81925 2.85 -5.70594 7.81925 2.78 -5.84132 9.22555 2.78 -5.84132 9.22555 2.85 -5.85432 7.97571 2.85 -5.85432 7.97571 2.78 -5.85432 7.97571 2.78 -5.70594 7.81925 2.78 -6.15131 7.83822 2.78 -6.30022 7.9947 2.78 -5.70594 7.81925 2.78 -5.70594 7.81925 2.85 -6.15131 7.83822 2.85 -6.15131 7.83822 2.78 -5.85432 7.97571 2.78 -5.85432 7.97571 2.85 -6.30022 7.9947 2.85 -6.30022 7.9947 2.78 -6.30022 7.9947 2.78 -6.15131 7.83822 2.78 -6.15475 7.3464 2.78 -6.30579 7.19857 2.78 -6.15131 7.83822 2.78 -6.15131 7.83822 2.85 -6.15475 7.3464 2.85 -6.15475 7.3464 2.78 -6.30022 7.9947 2.78 -6.30022 7.9947 2.85 -6.30579 7.19857 2.85 -6.30579 7.19857 2.78 -6.30579 7.19857 2.78 -6.15475 7.3464 2.78 -5.70176 7.33987 2.78 -5.88363 7.19248 2.78 -6.15475 7.3464 2.78 -6.15475 7.3464 2.85 -5.70176 7.33987 2.85 -5.70176 7.33987 2.78 -6.30579 7.19857 2.78 -6.30579 7.19857 2.85 -5.88363 7.19248 2.85 -5.88363 7.19248 2.78 -5.88363 7.19248 2.78 -5.70176 7.33987 2.78 -5.78382 6.92272 2.78 -5.9073 7.07212 2.78 -5.70176 7.33987 2.78 -5.70176 7.33987 2.85 -5.78382 6.92272 2.85 -5.78382 6.92272 2.78 -5.88363 7.19248 2.78 -5.88363 7.19248 2.85 -5.9073 7.07212 2.85 -5.9073 7.07212 2.78 -5.9073 7.07212 2.78 -5.78382 6.92272 2.78 -8.21509 6.91086 2.78 -8.36251 7.06014 2.78 -5.78382 6.92272 2.78 -5.78382 6.92272 2.85 -8.21509 6.91086 2.85 -8.21509 6.91086 2.78 -5.9073 7.07212 2.78 -5.9073 7.07212 2.85 -8.36251 7.06014 2.85 -8.36251 7.06014 2.78 -8.36251 7.06014 2.78 -8.21509 6.91086 2.78 -8.32896 0.36057 2.78 -8.48149 0.215928 2.78 -8.21509 6.91086 2.78 -8.21509 6.91086 2.85 -8.32896 0.36057 2.85 -8.32896 0.36057 2.78 -8.36251 7.06014 2.78 -8.36251 7.06014 2.85 -8.48149 0.215928 2.85 -8.48149 0.215928 2.78 -8.48149 0.215928 2.78 -8.32896 0.36057 2.78 -5.36978 0.254758 2.78 -5.21496 0.0991263 2.78 -8.32896 0.36057 2.78 -8.32896 0.36057 2.85 -5.36978 0.254758 2.85 -5.36978 0.254758 2.78 -8.48149 0.215928 2.78 -8.48149 0.215928 2.85 -5.21496 0.0991263 2.85 -5.21496 0.0991263 2.78 -5.21496 0.0991263 2.78 -5.36978 0.254758 2.78 -5.39263 1.0037 2.78 -5.23794 0.852284 2.78 -5.36978 0.254758 2.78 -5.36978 0.254758 2.85 -5.39263 1.0037 2.85 -5.39263 1.0037 2.78 -5.21496 0.0991263 2.78 -5.21496 0.0991263 2.85 -5.23794 0.852284 2.85 -5.23794 0.852284 2.78 -5.23794 0.852284 2.78 -5.39263 1.0037 2.78 -4.51078 0.995649 2.78 -4.36096 0.844275 2.78 -5.39263 1.0037 2.78 -5.39263 1.0037 2.85 -4.51078 0.995649 2.85 -4.51078 0.995649 2.78 -5.23794 0.852284 2.78 -5.23794 0.852284 2.85 -4.36096 0.844275 2.85 -4.36096 0.844275 2.78 -4.36096 0.844275 2.78 -4.51078 0.995649 2.78 -4.509 2.49721 2.78 -4.359 2.49704 2.78 -4.51078 0.995649 2.78 -4.51078 0.995649 2.85 -4.509 2.49721 2.85 -4.509 2.49721 2.78 -4.36096 0.844275 2.78 -4.36096 0.844275 2.85 -4.359 2.49704 2.85 -4.359 2.49704 2.78</float_array>
        <technique_common><accessor source="#Tray-positions-array" count="156" stride="3">
          <param name="X" type="float"/><param name="Y" type="float"/><param name="Z" type="float"/></accessor></technique_common></source>
      <source id="Tray-normals"><float_array id="Tray-normals-array" count="234">0 0 -1 -0 -0 1 -0.999718 0.0237519 0 0.999718 -0.0237519 -0 -0.999718 0.0237519 0 0.999718 -0.0237519 -0 -0 0 -1 0 -0 1 -0.0149237 -0.999889 0 0.0149237 0.999889 -0 -0.0149237 -0.999889 0 0.0149237 0.999889 -0 0 -0 -1 -0 0 1 0.999946 -0.0104078 0 -0.999946 0.0104078 -0 0.999946 -0.0104078 0 -0.999946 0.0104078 -0 -0 -0 -1 0 0 1 -0.0425623 -0.999094 0 0.0425623 0.999094 -0 -0.0425623 -0.999094 0 0.0425623 0.999094 -0 0 -0 -1 -0 0 1 0.999975 -0.007001 0 -0.999975 0.007001 -0 0.999975 -0.007001 0 -0.999975 0.007001 -0 0 0 -1 -0 -0 1 0.0144216 0.999896 -0 -0.0144216 -0.999896 0 0.0144216 0.999896 -0 -0.0144216 -0.999896 0 0 -0 -1 -0 0 1 0.981194 -0.193022 0 -0.981194 0.193022 -0 0.981194 -0.193022 0 -0.981194 0.193022 -0 0 -0 -1 -0 0 1 0.00487799 -0.999988 0 -0.00487799 0.999988 -0 0.00487799 -0.999988 0 -0.00487799 0.999988 -0 0 -0 -1 -0 0 1 0.999849 -0.0173811 0 -0.999849 0.0173811 -0 0.999849 -0.0173811 0 -0.999849 0.0173811 -0 0 0 -1 -0 -0 1 0.0357344 0.999361 -0 -0.0357344 -0.999361 0 0.0357344 0.999361 -0 -0.0357344 -0.999361 0 0 0 -1 -0 -0 1 -0.999535 -0.0304898 0 0.999535 0.0304898 -0 -0.999535 -0.0304898 0 0.999535 0.0304898 -0 0 0 -1 -0 -0 1 0.00913204 0.999958 -0 -0.00913204 -0.999958 0 0.00913204 0.999958 -0 -0.00913204 -0.999958 0 0 0 -1 -0 -0 1 -0.999999 0.00118835 0 0.999999 -0.00118835 -0 -0.999999 0.00118835 0 0.999999 -0.00118835 -0</float_array>
        <technique_common><accessor source="#Tray-normals-array" count="78" stride="3">
          <param name="X" type="float"/><param name="Y" type="float"/><param name="Z" type="float"/></accessor></technique_common></source>
      <source id="Tray-map"><float_array id="Tray-map-array" count="312">0 0 0 3 84.2038 3 84.2038 0 0 0 0 1.4 84.2038 1.4 84.2038 0 0 0 0 1.4 84.2038 1.4 84.2038 0 84.2038 0 84.2038 3 117.707 3 117.707 0 84.2038 0 84.2038 1.4 117.707 1.4 117.707 0 84.2038 0 84.2038 1.4 117.707 1.4 117.707 0 117.707 0 117.707 3 142.689 3 142.689 0 117.707 0 117.707 1.4 142.689 1.4 142.689 0 117.707 0 117.707 1.4 142.689 1.4 142.689 0 142.689 0 142.689 3 151.617 3 151.617 0 142.689 0 142.689 1.4 151.617 1.4 151.617 0 142.689 0 142.689 1.4 151.617 1.4 151.617 0 151.617 0 151.617 3 168.757 3 168.757 0 151.617 0 151.617 1.4 168.757 1.4 168.757 0 151.617 0 151.617 1.4 168.757 1.4 168.757 0 168.757 0 168.757 3 177.078 3 177.078 0 168.757 0 168.757 1.4 177.078 1.4 177.078 0 168.757 0 168.757 1.4 177.078 1.4 177.078 0 177.078 0 177.078 3 178.322 3 178.322 0 177.078 0 177.078 1.4 178.322 1.4 178.322 0 177.078 0 177.078 1.4 178.322 1.4 178.322 0 178.322 0 178.322 3 227.522 3 227.522 0 178.322 0 178.322 1.4 227.522 1.4 227.522 0 178.322 0 178.322 1.4 227.522 1.4 227.522 0 227.522 0 227.522 3 365.603 3 365.603 0 227.522 0 227.522 1.4 365.603 1.4 365.603 0 227.522 0 227.522 1.4 365.603 1.4 365.603 0 365.603 0 365.603 3 432.206 3 432.206 0 365.603 0 365.603 1.4 432.206 1.4 432.206 0 365.603 0 365.603 1.4 432.206 1.4 432.206 0 432.206 0 432.206 3 447.293 3 447.293 0 432.206 0 432.206 1.4 447.293 1.4 447.293 0 432.206 0 432.206 1.4 447.293 1.4 447.293 0 447.293 0 447.293 3 464.813 3 464.813 0 447.293 0 447.293 1.4 464.813 1.4 464.813 0 447.293 0 447.293 1.4 464.813 1.4 464.813 0 464.813 0 464.813 3 498.473 3 498.473 0 464.813 0 464.813 1.4 498.473 1.4 498.473 0 464.813 0 464.813 1.4 498.473 1.4 498.473 0</float_array>
        <technique_common><accessor source="#Tray-map-array" count="156" stride="2">
          <param name="S" type="float"/><param name="T" type="float"/></accessor></technique_common></source>
      <vertices id="Tray-vertices"><input semantic="POSITION" source="#Tray-positions"/></vertices>
      <triangles material="Rejiband-material" count="156">
        <input semantic="VERTEX" source="#Tray-vertices" offset="0"/>
        <input semantic="NORMAL" source="#Tray-normals" offset="1"/>
        <input semantic="TEXCOORD" source="#Tray-map" offset="2" set="0"/>
        <p>0 0 0 1 0 1 2 0 2 0 0 0 2 0 2 3 0 3 0 1 0 2 1 2 1 1 1 0 1 0 3 1 3 2 1 2 4 2 4 5 2 5 6 2 6 4 2 4 6 2 6 7 2 7 4 3 4 6 3 6 5 3 5 4 3 4 7 3 7 6 3 6 8 4 8 9 4 9 10 4 10 8 4 8 10 4 10 11 4 11 8 5 8 10 5 10 9 5 9 8 5 8 11 5 11 10 5 10 12 6 12 13 6 13 14 6 14 12 6 12 14 6 14 15 6 15 12 7 12 14 7 14 13 7 13 12 7 12 15 7 15 14 7 14 16 8 16 17 8 17 18 8 18 16 8 16 18 8 18 19 8 19 16 9 16 18 9 18 17 9 17 16 9 16 19 9 19 18 9 18 20 10 20 21 10 21 22 10 22 20 10 20 22 10 22 23 10 23 20 11 20 22 11 22 21 11 21 20 11 20 23 11 23 22 11 22 24 12 24 25 12 25 26 12 26 24 12 24 26 12 26 27 12 27 24 13 24 26 13 26 25 13 25 24 13 24 27 13 27 26 13 26 28 14 28 29 14 29 30 14 30 28 14 28 30 14 30 31 14 31 28 15 28 30 15 30 29 15 29 28 15 28 31 15 31 30 15 30 32 16 32 33 16 33 34 16 34 32 16 32 34 16 34 35 16 35 32 17 32 34 17 34 33 17 33 32 17 32 35 17 35 34 17 34 36 18 36 37 18 37 38 18 38 36 18 36 38 18 38 39 18 39 36 19 36 38 19 38 37 19 37 36 19 36 39 19 39 38 19 38 40 20 40 41 20 41 42 20 42 40 20 40 42 20 42 43 20 43 40 21 40 42 21 42 41 21 41 40 21 40 43 21 43 42 21 42 44 22 44 45 22 45 46 22 46 44 22 44 46 22 46 47 22 47 44 23 44 46 23 46 45 23 45 44 23 44 47 23 47 46 23 46 48 24 48 49 24 49 50 24 50 48 24 48 50 24 50 51 24 51 48 25 48 50 25 50 49 25 49 48 25 48 51 25 51 50 25 50 52 26 52 53 26 53 54 26 54 52 26 52 54 26 54 55 26 55 52 27 52 54 27 54 53 27 53 52 27 52 55 27 55 54 27 54 56 28 56 57 28 57 58 28 58 56 28 56 58 28 58 59 28 59 56 29 56 58 29 58 57 29 57 56 29 56 59 29 59 58 29 58 60 30 60 61 30 61 62 30 62 60 30 60 62 30 62 63 30 63 60 31 60 62 31 62 61 31 61 60 31 60 63 31 63 62 31 62 64 32 64 65 32 65 66 32 66 64 32 64 66 32 66 67 32 67 64 33 64 66 33 66 65 33 65 64 33 64 67 33 67 66 33 66 68 34 68 69 34 69 70 34 70 68 34 68 70 34 70 71 34 71 68 35 68 70 35 70 69 35 69 68 35 68 71 35 71 70 35 70 72 36 72 73 36 73 74 36 74 72 36 72 74 36 74 75 36 75 72 37 72 74 37 74 73 37 73 72 37 72 75 37 75 74 37 74 76 38 76 77 38 77 78 38 78 76 38 76 78 38 78 79 38 79 76 39 76 78 39 78 77 39 77 76 39 76 79 39 79 78 39 78 80 40 80 81 40 81 82 40 82 80 40 80 82 40 82 83 40 83 80 41 80 82 41 82 81 41 81 80 41 80 83 41 83 82 41 82 84 42 84 85 42 85 86 42 86 84 42 84 86 42 86 87 42 87 84 43 84 86 43 86 85 43 85 84 43 84 87 43 87 86 43 86 88 44 88 89 44 89 90 44 90 88 44 88 90 44 90 91 44 91 88 45 88 90 45 90 89 45 89 88 45 88 91 45 91 90 45 90 92 46 92 93 46 93 94 46 94 92 46 92 94 46 94 95 46 95 92 47 92 94 47 94 93 47 93 92 47 92 95 47 95 94 47 94 96 48 96 97 48 97 98 48 98 96 48 96 98 48 98 99 48 99 96 49 96 98 49 98 97 49 97 96 49 96 99 49 99 98 49 98 100 50 100 101 50 101 102 50 102 100 50 100 102 50 102 103 50 103 100 51 100 102 51 102 101 51 101 100 51 100 103 51 103 102 51 102 104 52 104 105 52 105 106 52 106 104 52 104 106 52 106 107 52 107 104 53 104 106 53 106 105 53 105 104 53 104 107 53 107 106 53 106 108 54 108 109 54 109 110 54 110 108 54 108 110 54 110 111 54 111 108 55 108 110 55 110 109 55 109 108 55 108 111 55 111 110 55 110 112 56 112 113 56 113 114 56 114 112 56 112 114 56 114 115 56 115 112 57 112 114 57 114 113 57 113 112 57 112 115 57 115 114 57 114 116 58 116 117 58 117 118 58 118 116 58 116 118 58 118 119 58 119 116 59 116 118 59 118 117 59 117 116 59 116 119 59 119 118 59 118 120 60 120 121 60 121 122 60 122 120 60 120 122 60 122 123 60 123 120 61 120 122 61 122 121 61 121 120 61 120 123 61 123 122 61 122 124 62 124 125 62 125 126 62 126 124 62 124 126 62 126 127 62 127 124 63 124 126 63 126 125 63 125 124 63 124 127 63 127 126 63 126 128 64 128 129 64 129 130 64 130 128 64 128 130 64 130 131 64 131 128 65 128 130 65 130 129 65 129 128 65 128 131 65 131 130 65 130 132 66 132 133 66 133 134 66 134 132 66 132 134 66 134 135 66 135 132 67 132 134 67 134 133 67 133 132 67 132 135 67 135 134 67 134 136 68 136 137 68 137 138 68 138 136 68 136 138 68 138 139 68 139 136 69 136 138 69 138 137 69 137 136 69 136 139 69 139 138 69 138 140 70 140 141 70 141 142 70 142 140 70 140 142 70 142 143 70 143 140 71 140 142 71 142 141 71 141 140 71 140 143 71 143 142 71 142 144 72 144 145 72 145 146 72 146 144 72 144 146 72 146 147 72 147 144 73 144 146 73 146 145 73 145 144 73 144 147 73 147 146 73 146 148 74 148 149 74 149 150 74 150 148 74 148 150 74 150 151 74 151 148 75 148 150 75 150 149 75 149 148 75 148 151 75 151 150 75 150 152 76 152 153 76 153 154 76 154 152 76 152 154 76 154 155 76 155 152 77 152 154 77 154 153 77 153 152 77 152 155 77 155 154 77 154</p></triangles></mesh></geometry></library_geometries>
  <library_visual_scenes><visual_scene id="Scene" name="Scene">
    <node id="Tray" name="Tray" type="NODE"><matrix sid="transform">1 0 0 0 0 1 0 0 0 0 1 0 0 0 0 1</matrix>
      <instance_geometry url="#Tray-mesh" name="Tray"><bind_material><technique_common>
        <instance_material symbol="Rejiband-material" target="#Rejiband-material"/></technique_common></bind_material></instance_geometry></node>
  </visual_scene></library_visual_scenes>
  <scene><instance_visual_scene url="#Scene"/></scene>
</COLLADA>
