<?xml version="1.0" encoding="utf-8"?>
<COLLADA xmlns="http://www.collada.org/2005/11/COLLADASchema" version="1.4.1" xmlns:xsi="http://www.w3.org/2001/XMLSchema-instance">
  <asset>
    <contributor><authoring_tool>robocomp apartamento mesh generator</authoring_tool></contributor>
    <created>2026-07-14T00:00:00</created>
    <modified>2026-07-14T00:00:00</modified>
    <unit name="meter" meter="1"/>
    <up_axis>Z_UP</up_axis>
  </asset>
  <library_materials>
    <material id="LaminateFloor-material" name="LaminateFloor"><instance_effect url="#LaminateFloor-effect"/></material>
  </library_materials>
  <library_effects>
    <effect id="LaminateFloor-effect"><profile_COMMON><technique sid="common"><lambert>
      <diffuse><color sid="diffuse">0.8 0.8 0.8 1</color></diffuse>
    </lambert></technique></profile_COMMON></effect>
  </library_effects>
  <library_geometries>
    <geometry id="Floor-mesh" name="Floor">
      <mesh>
        <source id="Floor-positions">
          <float_array id="Floor-positions-array" count="72">-0.215 0 0 -0 6.892 0 -0.222 7.166 0 -4.172 7.166 0 -4.212 5.012 0 -4.296 5.022 0 -4.196 9.231 0 -5.871 9.256 0 -5.884 8.007 0 -6.33 8.026 0 -6.336 7.169 0 -5.92 7.163 0 -5.932 7.102 0 -8.392 7.09 0 -8.508 0.437 0 -5.184 0.068 0 -5.207 0.822 0 -4.331 0.814 0 -4.329 2.497 0 -4.184 2.506 0 -4.222 0.82 0 -3.232 0.792 0 -3.236 0.078 0 -8.262 0.178 0</float_array>
          <technique_common><accessor source="#Floor-positions-array" count="24" stride="3">
            <param name="X" type="float"/><param name="Y" type="float"/><param name="Z" type="float"/>
          </accessor></technique_common>
        </source>
        <source id="Floor-normals">
          <float_array id="Floor-normals-array" count="3">0 0 1</float_array>
          <technique_common><accessor source="#Floor-normals-array" count="1" stride="3">
            <param name="X" type="float"/><param name="Y" type="float"/><param name="Z" type="float"/>
          </accessor></technique_common>
        </source>
        <source id="Floor-map">
          <float_array id="Floor-map-array" count="48">-0.215 0 -0 6.892 -0.222 7.166 -4.172 7.166 -4.212 5.012 -4.296 5.022 -4.196 9.231 -5.871 9.256 -5.884 8.007 -6.33 8.026 -6.336 7.169 -5.92 7.163 -5.932 7.102 -8.392 7.09 -8.508 0.437 -5.184 0.068 -5.207 0.822 -4.331 0.814 -4.329 2.497 -4.184 2.506 -4.222 0.82 -3.232 0.792 -3.236 0.078 -8.262 0.178</float_array>
          <technique_common><accessor source="#Floor-map-array" count="24" stride="2">
            <param name="S" type="float"/><param name="T" type="float"/>
          </accessor></technique_common>
        </source>
        <vertices id="Floor-vertices">
          <input semantic="POSITION" source="#Floor-positions"/>
        </vertices>
        <triangles material="LaminateFloor-material" count="22">
          <input semantic="VERTEX" source="#Floor-vertices" offset="0"/>
          <input semantic="NORMAL" source="#Floor-normals" offset="1"/>
          <input semantic="TEXCOORD" source="#Floor-map" offset="2" set="0"/>
          <p>22 0 22 0 0 0 1 0 1 22 0 22 1 0 1 2 0 2 2 0 2 3 0 3 4 0 4 5 0 5 6 0 6 7 0 7 5 0 5 7 0 7 8 0 8 5 0 5 8 0 8 9 0 9 9 0 9 10 0 10 11 0 11 5 0 5 9 0 9 11 0 11 5 0 5 11 0 11 12 0 12 5 0 5 12 0 12 13 0 13 5 0 5 13 0 13 14 0 14 4 0 4 5 0 5 14 0 14 2 0 2 4 0 4 14 0 14 14 0 14 15 0 15 16 0 16 16 0 16 17 0 17 18 0 18 14 0 14 16 0 16 18 0 18 2 0 2 14 0 14 18 0 18 2 0 2 18 0 18 19 0 19 2 0 2 19 0 19 20 0 20 2 0 2 20 0 20 21 0 21 2 0 2 21 0 21 22 0 22 14 0 14 23 0 23 15 0 15</p>
        </triangles>
      </mesh>
    </geometry>
  </library_geometries>
  <library_visual_scenes>
    <visual_scene id="Scene" name="Scene">
      <node id="Floor" name="Floor" type="NODE">
        <matrix sid="transform">1 0 0 0 0 1 0 0 0 0 1 0 0 0 0 1</matrix>
        <instance_geometry url="#Floor-mesh" name="Floor">
          <bind_material><technique_common>
            <instance_material symbol="LaminateFloor-material" target="#LaminateFloor-material"/>
          </technique_common></bind_material>
        </instance_geometry>
      </node>
    </visual_scene>
  </library_visual_scenes>
  <scene><instance_visual_scene url="#Scene"/></scene>
</COLLADA>
