<?xml version="1.0" encoding="utf-8"?>
<COLLADA xmlns="http://www.collada.org/2005/11/COLLADASchema" version="1.4.1">
  <asset>
    <contributor><authoring_tool>robocomp apartamento mesh generator</authoring_tool></contributor>
    <created>2026-07-14T00:00:00</created>
    <modified>2026-07-14T00:00:00</modified>
    <unit name="meter" meter="1"/>
    <up_axis>Z_UP</up_axis>
  </asset>
  <library_materials>
    <material id="LaminateFloor-material" name="LaminateFloor">
      <instance_effect url="#LaminateFloor-effect"/>
    </material>
  </library_materials>
  <library_effects>
    <effect id="LaminateFloor-effect"><profile_COMMON><technique sid="common">
      <lambert><diffuse><color>0.8 0.8 0.8 1</color></diffuse></lambert>
    </technique></profile_COMMON></effect>
  </library_effects>
  <library_geometries>
    <geometry id="Floor-mesh" name="Floor"><mesh>
      <source id="Floor-positions">
        <float_array id="Floor-positions-array" count="90">-0.000000 6.892000 0.000000 -0.222000 7.166000 0.000000 -4.172000 7.166000 0.000000 -4.212000 5.012000 0.000000 -4.296000 5.022000 0.000000 -4.196000 9.231000 0.000000 -5.871000 9.256000 0.000000 -5.884000 8.007000 0.000000 -6.330000 8.026000 0.000000 -6.336000 7.169000 0.000000 -5.920000 7.163000 0.000000 -5.932000 7.102000 0.000000 -8.392000 7.090000 0.000000 -8.508000 0.437000 0.000000 -8.262000 0.178000 0.000000 -5.184000 0.068000 0.000000 -5.207000 0.822000 0.000000 -4.331000 0.814000 0.000000 -4.329000 2.497000 0.000000 -4.184000 2.506000 0.000000 -4.222000 0.820000 0.000000 -3.232000 0.792000 0.000000 -3.236000 0.078000 0.000000 -0.215000 0.000000 0.000000 -7.880000 9.200000 0.000000 -5.871583 9.200000 0.000000 -4.196737 9.200000 0.000000 -1.660000 9.200000 0.000000 -1.660000 13.590000 0.000000 -7.880000 13.590000 0.000000</float_array>
        <technique_common><accessor source="#Floor-positions-array" count="30" stride="3">
          <param name="X" type="float"/><param name="Y" type="float"/><param name="Z" type="float"/>
        </accessor></technique_common>
      </source>
      <source id="Floor-normals">
        <float_array id="Floor-normals-array" count="3">0 0 1</float_array>
        <technique_common><accessor source="#Floor-normals-array" count="1" stride="3">
          <param name="X" type="float"/><param name="Y" type="float"/><param name="Z" type="float"/>
        </accessor></technique_common>
      </source>
      <source id="Floor-map">
        <float_array id="Floor-map-array" count="60">-0.000000 6.892000 -0.222000 7.166000 -4.172000 7.166000 -4.212000 5.012000 -4.296000 5.022000 -4.196000 9.231000 -5.871000 9.256000 -5.884000 8.007000 -6.330000 8.026000 -6.336000 7.169000 -5.920000 7.163000 -5.932000 7.102000 -8.392000 7.090000 -8.508000 0.437000 -8.262000 0.178000 -5.184000 0.068000 -5.207000 0.822000 -4.331000 0.814000 -4.329000 2.497000 -4.184000 2.506000 -4.222000 0.820000 -3.232000 0.792000 -3.236000 0.078000 -0.215000 0.000000 -7.880000 9.200000 -5.871583 9.200000 -4.196737 9.200000 -1.660000 9.200000 -1.660000 13.590000 -7.880000 13.590000</float_array>
        <technique_common><accessor source="#Floor-map-array" count="30" stride="2">
          <param name="S" type="float"/><param name="T" type="float"/>
        </accessor></technique_common>
      </source>
      <vertices id="Floor-vertices"><input semantic="POSITION" source="#Floor-positions"/></vertices>
      <triangles material="LaminateFloor-material" count="28">
        <input semantic="VERTEX" source="#Floor-vertices" offset="0"/>
        <input semantic="NORMAL" source="#Floor-normals" offset="1"/>
        <input semantic="TEXCOORD" source="#Floor-map" offset="2" set="0"/>
        <p>0 0 0 1 0 1 2 0 2 0 0 0 2 0 2 3 0 3 4 0 4 5 0 5 6 0 6 4 0 4 6 0 6 7 0 7 4 0 4 7 0 7 8 0 8 8 0 8 9 0 9 10 0 10 4 0 4 8 0 8 10 0 10 4 0 4 10 0 10 11 0 11 4 0 4 11 0 11 12 0 12 4 0 4 12 0 12 13 0 13 3 0 3 4 0 4 13 0 13 0 0 0 3 0 3 13 0 13 0 0 0 13 0 13 14 0 14 14 0 14 15 0 15 16 0 16 16 0 16 17 0 17 18 0 18 14 0 14 16 0 16 18 0 18 0 0 0 14 0 14 18 0 18 0 0 0 18 0 18 19 0 19 0 0 0 19 0 19 20 0 20 0 0 0 20 0 20 21 0 21 0 0 0 21 0 21 22 0 22 22 0 22 23 0 23 0 0 0 24 0 24 25 0 25 6 0 6 5 0 5 26 0 26 27 0 27 6 0 6 5 0 5 27 0 27 6 0 6 27 0 27 28 0 28 24 0 24 6 0 6 28 0 28 28 0 28 29 0 29 24 0 24</p>
      </triangles>
    </mesh></geometry>
  </library_geometries>
  <library_visual_scenes><visual_scene id="Scene" name="Scene">
    <node id="Floor" name="Floor" type="NODE">
      <matrix sid="transform">1 0 0 0 0 1 0 0 0 0 1 0 0 0 0 1</matrix>
      <instance_geometry url="#Floor-mesh" name="Floor">
        <bind_material><technique_common>
          <instance_material symbol="LaminateFloor-material" target="#LaminateFloor-material"/>
        </technique_common></bind_material>
      </instance_geometry>
    </node>
  </visual_scene></library_visual_scenes>
  <scene><instance_visual_scene url="#Scene"/></scene>
</COLLADA>
