<?xml version='1.0' encoding='utf-8'?>
<COLLADA xmlns="http://www.collada.org/2005/11/COLLADASchema" version="1.4.1">
  <asset>
    <contributor><authoring_tool>robocomp apartamento mesh generator</authoring_tool></contributor>
    <created>2026-07-14T00:00:00</created>
    <modified>2026-07-14T00:00:00</modified>
    <unit name="meter" meter="1" />
    <up_axis>Z_UP</up_axis>
  </asset>
  <library_materials>
    <material id="BeigeWall-material" name="BeigeWall"><instance_effect url="#BeigeWall-effect" /></material>
  </library_materials>
  <library_effects>
    <effect id="BeigeWall-effect"><profile_COMMON><technique sid="common"><lambert>
      <diffuse><color sid="diffuse">0.8 0.8 0.8 1</color></diffuse>
    </lambert></technique></profile_COMMON></effect>
  </library_effects>
  <library_geometries>
    <geometry id="Room-mesh" name="Room">
      <mesh>
        <source id="Room-positions">
          <float_array id="Room-positions-array" count="426">-5.26942 9.35703 0 -5.97984 9.36764 0 -5.97984 9.36764 2.1 -5.26942 9.35703 2.1 -5.27106 9.24705 0 -5.27106 9.24705 2.1 -5.871 9.256 0 -5.871 9.256 2.1 -5.884 8.007 0 -5.884 8.007 2.1 -6.33 8.026 0 -6.33 8.026 2.1 -6.336 7.169 0 -6.336 7.169 2.1 -5.92 7.163 0 -5.92 7.163 2.1 -5.932 7.102 0 -5.932 7.102 2.1 -8.392 7.09 0 -8.392 7.09 2.1 -8.508 0.437 0 -8.508 0.437 2.1 -8.262 0.178 0 -8.262 0.178 2.1 -5.184 0.068 0 -5.184 0.068 2.1 -5.207 0.822 0 -5.207 0.822 2.1 -4.331 0.814 0 -4.331 0.814 2.1 -4.329 2.497 0 -4.329 2.497 2.1 -4.184 2.506 0 -4.184 2.506 2.1 -4.222 0.82 0 -4.222 0.82 2.1 -3.232 0.792 0 -3.232 0.792 2.1 -3.236 0.078 0 -3.236 0.078 2.1 -0.215 0 0 -0.215 0 2.1 -0 6.892 0 -0 6.892 2.1 -0.222 7.166 0 -0.222 7.166 2.1 -3.08277 7.166 0 -3.08277 7.166 2.1 -3.08277 7.276 0 -3.08277 7.276 2.1 -0.16955 7.276 0 -0.16955 7.276 2.1 0.111222 6.92946 0 0.111222 6.92946 2.1 -0.108465 -0.112787 0 -0.108465 -0.112787 2.1 -3.3466 -0.029181 0 -3.3466 -0.029181 2.1 -3.3426 0.685084 0 -3.3426 0.685084 2.1 -4.22112 0.709931 0 -4.22112 0.709931 2.1 -4.22113 0.702992 0 -4.22113 0.702992 2.1 -5.09356 0.710959 0 -5.09356 0.710959 2.1 -5.07047 -0.0461276 0 -5.07047 -0.0461276 2.1 -8.31082 0.0696745 0 -8.31082 0.0696745 2.1 -8.61877 0.393895 0 -8.61877 0.393895 2.1 -8.50011 7.19947 0 -8.50011 7.19947 2.1 -6.44572 7.2095 0 -6.44572 7.2095 2.1 -6.4392 8.14075 0 -6.4392 8.14075 2.1 -5.99281 8.12174 0 -5.99281 8.12174 2.1 -4.13242 7.276 0 -4.0834 9.33933 0 -4.0834 9.33933 2.1 -4.13242 7.276 2.1 -4.08277 7.276 0 -4.08277 7.276 2.1 -4.08277 7.166 0 -4.08277 7.166 2.1 -4.172 7.166 0 -4.172 7.166 2.1 -4.212 5.012 0 -4.212 5.012 2.1 -4.296 5.022 0 -4.296 5.022 2.1 -4.196 9.231 0 -4.196 9.231 2.1 -4.27118 9.23212 0 -4.27118 9.23212 2.1 -4.26953 9.34211 0 -4.26953 9.34211 2.1 -6.4392 8.14075 3 -5.99281 8.12174 3 -5.97984 9.36764 3 -4.0834 9.33933 3 -4.13242 7.276 3 -0.16955 7.276 3 0.111222 6.92946 3 -0.108465 -0.112787 3 -3.3466 -0.029181 3 -3.3426 0.685084 3 -4.22112 0.709931 3 -4.22113 0.702992 3 -5.09356 0.710959 3 -5.07047 -0.0461276 3 -8.31082 0.0696745 3 -8.61877 0.393895 3 -8.50011 7.19947 3 -6.44572 7.2095 3 -0.222 7.166 3 -4.172 7.166 3 -4.212 5.012 3 -4.296 5.022 3 -4.196 9.231 3 -5.871 9.256 3 -5.884 8.007 3 -6.33 8.026 3 -6.336 7.169 3 -5.92 7.163 3 -5.932 7.102 3 -8.392 7.09 3 -8.508 0.437 3 -8.262 0.178 3 -5.184 0.068 3 -5.207 0.822 3 -4.331 0.814 3 -4.329 2.497 3 -4.184 2.506 3 -4.222 0.82 3 -3.232 0.792 3 -3.236 0.078 3 -0.215 0 3 -0 6.892 3</float_array>
          <technique_common><accessor source="#Room-positions-array" count="142" stride="3">
            <param name="X" type="float" /><param name="Y" type="float" /><param name="Z" type="float" />
          </accessor></technique_common>
        </source>
        <source id="Room-normals">
          <float_array id="Room-normals-array" count="144">0.0149237 0.999889 0 0.999889 -0.014924 0 -0.0149237 -0.999889 0 0.999946 -0.0104078 0 -0.0425623 -0.999094 0 0.999975 -0.007001 0 0.0144216 0.999896 0 0.981194 -0.193022 0 0.00487799 -0.999988 0 0.999848 -0.0174331 0 0.725069 0.688676 0 0.0357147 0.999362 0 -0.999535 -0.0304898 0 0.00913204 0.999958 0 -0.999999 0.00118835 0 -0.0619497 0.998079 0 0.999746 -0.0225328 0 0.0282715 0.9996 0 0.999984 -0.00560215 0 0.0258107 0.999667 0 -0.999514 0.0311804 0 -0.776981 -0.629524 0 -0 -1 0 -1 0 0 -0 1 0 0.776981 0.629524 0 0.999514 -0.0311804 0 -0.0258107 -0.999667 0 -0.999984 0.00560215 0 -0.0282715 -0.9996 0 0.999999 -0.00118835 0 -0.00913204 -0.999958 0 0.999535 0.0304898 0 -0.0357147 -0.999362 0 -0.725069 -0.688676 0 -0.999848 0.0174331 0 -0.00487799 0.999988 0 -0.999975 0.007001 0 0.0425623 0.999094 0 -0.999946 0.0104078 0 0 0 -1 0.999718 -0.0237519 0 1 0 0 0.999828 -0.0185669 0 -0.118213 -0.992988 0 -0.999718 0.0237519 0 -0.999889 0.014924 0 0 0 1</float_array>
          <technique_common><accessor source="#Room-normals-array" count="48" stride="3">
            <param name="X" type="float" /><param name="Y" type="float" /><param name="Z" type="float" />
          </accessor></technique_common>
        </source>
        <source id="Room-map">
          <float_array id="Room-map-array" count="208">18.7223 0 19.3223 0 19.3223 2.1 18.7223 2.1 20.5714 0 20.5714 2.1 21.0178 0 21.0178 2.1 21.8748 0 21.8748 2.1 22.2909 0 22.2909 2.1 22.353 0 22.353 2.1 24.8131 0 24.8131 2.1 31.4671 0 31.4671 2.1 31.8243 0 31.8243 2.1 34.9043 0 34.9043 2.1 35.6586 0 35.6586 2.1 36.5346 0 36.5346 2.1 38.2176 0 38.2176 2.1 38.3629 0 38.3629 2.1 40.0494 0 40.0494 2.1 41.0397 0 41.0397 2.1 41.7538 0 41.7538 2.1 44.7758 0 44.7758 2.1 6.89535 0 6.89535 2.1 7.248 0 7.248 2.1 10.1088 0 10.1088 2.1 0 0 0 2.1 41.1472 0 41.1472 2.1 40.0534 0 40.0534 2.1 40.0536 0 40.0536 2.1 35.5442 0 35.5442 2.1 22.8662 0 22.8662 2.1 20.4578 0 20.4578 2.1 15.6943 0 17.6472 0 17.6472 2.1 15.6943 2.1 11.1088 0 11.1088 2.1 11.198 0 11.198 2.1 13.3524 0 13.3524 2.1 13.437 0 13.437 2.1 17.7224 0 17.7224 2.1 21.0178 3 20.4578 3 19.3223 3 17.6472 3 15.6943 3 7.248 3 6.89535 3 0 3 41.7538 3 41.1472 3 40.0534 3 40.0536 3 35.5442 3 34.9043 3 31.8243 3 31.4671 3 24.8131 3 22.8662 3 11.198 3 13.3524 3 13.437 3 20.5714 3 21.8748 3 22.2909 3 22.353 3 35.6586 3 36.5346 3 38.2176 3 38.3629 3 40.0494 3 41.0397 3 44.7758 3</float_array>
          <technique_common><accessor source="#Room-map-array" count="104" stride="2">
            <param name="S" type="float" /><param name="T" type="float" />
          </accessor></technique_common>
        </source>
        <vertices id="Room-vertices">
          <input semantic="POSITION" source="#Room-positions" />
        </vertices>
        <triangles material="BeigeWall-material" count="112">
          <input semantic="VERTEX" source="#Room-vertices" offset="0" />
          <input semantic="NORMAL" source="#Room-normals" offset="1" />
          <input semantic="TEXCOORD" source="#Room-map" offset="2" set="0" />
          <p>30 14 26 28 14 24 29 14 25 30 14 26 29 14 25 31 14 27 36 17 32 34 17 30 35 17 31 36 17 32 35 17 31 37 17 33 38 18 34 36 18 32 37 18 33 38 18 34 37 18 33 39 18 35 40 19 36 38 19 34 39 19 35 40 19 36 39 19 35 41 19 37 42 20 38 40 20 36 41 20 37 42 20 38 41 20 37 43 20 39 44 21 40 42 21 38 43 21 39 44 21 40 43 21 39 45 21 41 46 22 42 44 22 40 45 22 41 46 22 42 45 22 41 47 22 43 48 23 42 46 23 42 47 23 43 48 23 42 47 23 43 49 23 43 50 24 40 48 24 42 49 24 43 50 24 40 49 24 43 51 24 41 52 25 38 50 25 40 51 25 41 52 25 38 51 25 41 53 25 39 54 26 44 52 26 38 53 26 39 54 26 44 53 26 39 55 26 45 56 27 34 54 27 44 55 27 45 56 27 34 55 27 45 57 27 35 58 28 46 56 28 34 57 28 35 58 28 46 57 28 35 59 28 47 60 29 48 58 29 46 59 29 47 60 29 48 59 29 47 61 29 49 62 30 50 60 30 48 61 30 49 62 30 50 61 30 49 63 30 51 46 40 42 48 40 42 50 40 40 44 40 40 46 40 42 50 40 40 44 40 40 50 40 40 52 40 38 42 40 38 44 40 40 52 40 38 42 40 38 52 40 38 54 40 44 40 40 36 42 40 38 54 40 44 40 40 36 54 40 44 56 40 34 38 40 34 40 40 36 56 40 34 38 40 34 56 40 34 58 40 46 36 40 32 38 40 34 58 40 46 36 40 32 58 40 46 60 40 48 36 40 32 60 40 48 64 40 52 34 40 30 36 40 32 64 40 52 28 40 24 30 40 26 34 40 30 80 41 58 81 41 59 82 41 60 80 41 58 82 41 60 83 41 61 84 24 62 80 24 58 83 24 61 84 24 62 83 24 61 85 24 63 86 42 62 84 42 62 85 42 63 86 42 62 85 42 63 87 42 63 88 22 64 86 22 62 87 22 63 88 22 64 87 22 63 89 22 65 94 45 59 92 45 68 93 45 69 94 45 59 93 45 69 95 45 60 81 0 59 99 0 71 82 0 60 94 40 59 96 40 70 81 40 59 92 40 68 94 40 59 81 40 59 88 40 64 92 40 68 81 40 59 84 40 62 86 40 62 88 40 64 80 40 58 84 40 62 88 40 64 81 40 59 80 40 58 88 40 64 83 41 61 82 41 60 103 41 75 83 41 61 103 41 75 104 41 76 51 24 41 83 24 61 104 24 76 51 24 41 104 24 76 105 24 77 53 25 39 51 25 41 105 25 77 53 25 39 105 25 77 106 25 78 55 26 45 53 26 39 106 26 78 55 26 45 106 26 78 107 26 79 57 27 35 55 27 45 107 27 79 57 27 35 107 27 79 108 27 80 59 28 47 57 28 35 108 28 80 59 28 47 108 28 80 109 28 81 61 29 49 59 29 47 109 29 81 61 29 49 109 29 81 110 29 82 63 30 51 61 30 49 110 30 82 63 30 51 110 30 82 111 30 83 89 22 65 45 22 41 118 22 77 89 22 65 118 22 77 119 22 90 95 45 60 93 45 69 121 45 92 95 45 60 121 45 92 122 45 75 31 14 27 29 14 25 134 14 98 31 14 27 134 14 98 135 14 99 37 17 33 35 17 31 137 17 101 37 17 33 137 17 101 138 17 102 39 18 35 37 18 33 138 18 102 39 18 35 138 18 102 139 18 80 41 19 37 39 19 35 139 19 80 41 19 37 139 19 80 140 19 103 43 20 39 41 20 37 140 20 103 43 20 39 140 20 103 141 20 78 45 21 41 43 21 39 141 21 78 45 21 41 141 21 78 118 21 77 107 47 79 106 47 78 141 47 78 107 47 79 141 47 78 140 47 103 108 47 80 107 47 79 140 47 103 108 47 80 140 47 103 139 47 80 109 47 81 108 47 80 139 47 80 109 47 81 139 47 80 138 47 102 110 47 82 109 47 81 138 47 102 112 47 84 110 47 82 138 47 102 112 47 84 138 47 102 137 47 101 137 47 101 135 47 99 134 47 98 122 47 75 121 47 92 120 47 91 118 47 77 141 47 78 106 47 78 118 47 77 106 47 78 105 47 77 119 47 90 118 47 77 105 47 77 119 47 90 105 47 77 104 47 76 122 47 75 119 47 90 104 47 76 122 47 75 104 47 76 103 47 75 87 40 63 85 40 63 49 40 43 49 40 43 47 40 43 87 40 63</p>
        </triangles>
      </mesh>
    </geometry>
  </library_geometries>
  <library_visual_scenes>
    <visual_scene id="Scene" name="Scene">
      <node id="Room" name="Room" type="NODE">
        <matrix sid="transform">1 0 0 0 0 1 0 0 0 0 1 0 0 0 0 1</matrix>
        <instance_geometry url="#Room-mesh" name="Room">
          <bind_material><technique_common>
            <instance_material symbol="BeigeWall-material" target="#BeigeWall-material" />
          </technique_common></bind_material>
        </instance_geometry>
      </node>
    </visual_scene>
  </library_visual_scenes>
  <scene><instance_visual_scene url="#Scene" /></scene>
</COLLADA>