# Blender 4.1.0
# www.blender.org
mtllib FourRooms_Floor.mtl
o Floor.007
v -3.000000 -2.000000 0.000000
v 3.000000 -2.000000 0.000000
v -3.000000 4.000000 0.000000
v 3.000000 4.000000 0.000000
v -3.000000 0.850917 0.000000
v 3.000000 0.850917 0.000000
v 3.000000 2.137917 0.000000
v -3.000000 2.137917 0.000000
v -0.149917 -2.000000 0.000000
v -0.149917 4.000000 0.000000
v -0.149917 0.850917 0.000000
v -0.149917 2.137917 0.000000
v 1.156583 -2.000000 0.000000
v 1.156583 4.000000 0.000000
v 1.156583 0.850917 0.000000
v 1.156583 2.137917 0.000000
v -9.000002 4.999999 0.000000
v -8.999999 -1.000001 0.000000
v -3.000001 5.000001 0.000000
v -2.999999 -0.999999 0.000000
v -6.130596 5.000000 0.000000
v -6.130592 -1.000000 0.000000
v -4.009998 -1.000000 0.000000
v -4.010001 5.000000 0.000000
v -9.000000 2.150915 0.000000
v -3.000000 2.150918 0.000000
v -6.130594 2.150917 0.000000
v -4.010000 2.150917 0.000000
v -9.000000 0.844415 0.000000
v -3.000000 0.844418 0.000000
v -6.130593 0.844416 0.000000
v -4.009999 0.844417 0.000000
v -2.000001 10.000001 0.000000
v -8.000001 10.000000 0.000000
v -1.999999 5.000001 0.000000
v -7.999999 4.999999 0.000000
v -2.000000 7.148501 0.000000
v -8.000000 7.148498 0.000000
v -8.000000 5.861498 0.000000
v -2.000000 5.861501 0.000000
v -4.830595 10.000000 0.000000
v -4.830593 5.000000 0.000000
v -4.830594 7.148499 0.000000
v -4.830594 5.861500 0.000000
v -6.137095 10.000000 0.000000
v -6.137093 5.000000 0.000000
v -6.137094 7.148499 0.000000
v -6.137094 5.861499 0.000000
v 1.999999 10.000001 0.000000
v -2.000001 10.000000 0.000000
v 2.000001 4.000001 0.000000
v -1.999999 3.999999 0.000000
v 2.000000 7.148501 0.000000
v -2.000000 7.148498 0.000000
v -2.000000 5.861498 0.000000
v 2.000000 5.861501 0.000000
v 1.150082 10.000000 0.000000
v 1.150085 4.000000 0.000000
v 1.150083 7.148499 0.000000
v 1.150084 5.861500 0.000000
v -0.156418 10.000000 0.000000
v -0.156415 4.000000 0.000000
v -0.156417 7.148499 0.000000
v -0.156416 5.861499 0.000000
vn -0.0000 -0.0000 1.0000
vt -0.373005 0.499489
vt -0.798283 0.078474
vt -0.373005 0.078474
vt 0.572047 0.078474
vt -0.079069 0.499489
vt -0.079069 0.078474
vt -0.079069 -0.219916
vt -0.373005 -0.870841
vt -0.079069 -0.870841
vt 0.572047 -0.219915
vt 0.572047 -0.870841
vt -0.373005 -0.219916
vt -0.798283 -0.870841
vt -0.798283 -0.219916
vt -0.798283 0.499489
vt 0.572047 0.499489
vt 0.994123 0.925656
vt 0.573070 0.500511
vt 0.994123 0.500511
vt 0.573070 1.870841
vt 0.994123 1.219592
vt 0.994123 1.870841
vt 0.573070 0.925656
vt 1.292512 1.219591
vt 1.486623 0.925656
vt 1.486623 1.219592
vt 1.292512 1.870841
vt 1.486623 1.870841
vt 1.292512 0.925656
vt 1.486623 0.500511
vt 1.292512 0.500511
vt 0.573070 1.219591
vt 0.769826 0.074023
vt 0.573070 0.499489
vt 0.573070 0.074023
vt 1.715012 0.499489
vt 1.063762 0.074023
vt 1.715012 0.074023
vt 1.063762 0.499489
vt 1.063762 -0.224367
vt 0.769826 -0.870841
vt 1.063762 -0.870841
vt 1.715012 -0.224367
vt 1.715011 -0.870841
vt 0.573070 -0.224367
vt 0.573070 -0.870841
vt 0.769826 -0.224367
vt 0.769826 0.499489
vt 0.341375 0.921754
vt 0.572047 0.500511
vt 0.572047 0.921754
vt -0.798283 0.500511
vt -0.142943 0.921754
vt -0.798283 0.921754
vt -0.142943 0.500511
vt -0.142944 1.220144
vt 0.341375 1.870841
vt -0.142944 1.870841
vt -0.798283 1.220144
vt -0.798283 1.870841
vt 0.572047 1.220144
vt 0.572047 1.870841
vt 0.341375 1.220144
vt 0.341375 0.500511
s 0
usemtl marble_tiles
f 64/17/1 52/18/1 62/19/1
f 50/20/1 63/21/1 61/22/1
f 63/21/1 55/23/1 64/17/1
f 59/24/1 56/25/1 53/26/1
f 57/27/1 53/26/1 49/28/1
f 60/29/1 51/30/1 56/25/1
f 63/21/1 60/29/1 59/24/1
f 57/27/1 63/21/1 59/24/1
f 64/17/1 58/31/1 60/29/1
f 64/17/1 55/23/1 52/18/1
f 50/20/1 54/32/1 63/21/1
f 63/21/1 54/32/1 55/23/1
f 59/24/1 60/29/1 56/25/1
f 57/27/1 59/24/1 53/26/1
f 60/29/1 58/31/1 51/30/1
f 63/21/1 64/17/1 60/29/1
f 57/27/1 61/22/1 63/21/1
f 64/17/1 62/19/1 58/31/1
usemtl laminate_floor_03
f 7/1/1 14/2/1 16/3/1
f 13/4/1 6/5/1 15/6/1
f 6/5/1 16/3/1 15/6/1
f 11/7/1 8/8/1 5/9/1
f 9/10/1 5/9/1 1/11/1
f 12/12/1 3/13/1 8/8/1
f 15/6/1 12/12/1 11/7/1
f 9/10/1 15/6/1 11/7/1
f 16/3/1 10/14/1 12/12/1
f 7/1/1 4/15/1 14/2/1
f 13/4/1 2/16/1 6/5/1
f 6/5/1 7/1/1 16/3/1
f 11/7/1 12/12/1 8/8/1
f 9/10/1 11/7/1 5/9/1
f 12/12/1 10/14/1 3/13/1
f 15/6/1 16/3/1 12/12/1
f 9/10/1 13/4/1 15/6/1
f 16/3/1 14/2/1 10/14/1
f 32/49/1 20/50/1 30/51/1
f 18/52/1 31/53/1 29/54/1
f 22/55/1 32/49/1 31/53/1
f 27/56/1 24/57/1 21/58/1
f 25/59/1 21/58/1 17/60/1
f 24/57/1 26/61/1 19/62/1
f 31/53/1 28/63/1 27/56/1
f 25/59/1 31/53/1 27/56/1
f 28/63/1 30/51/1 26/61/1
f 32/49/1 23/64/1 20/50/1
f 18/52/1 22/55/1 31/53/1
f 22/55/1 23/64/1 32/49/1
f 27/56/1 28/63/1 24/57/1
f 25/59/1 27/56/1 21/58/1
f 24/57/1 28/63/1 26/61/1
f 31/53/1 32/49/1 28/63/1
f 25/59/1 29/54/1 31/53/1
f 28/63/1 32/49/1 30/51/1
usemtl concrete_floor_worn_001
f 48/33/1 36/34/1 46/35/1
f 34/36/1 47/37/1 45/38/1
f 38/39/1 48/33/1 47/37/1
f 43/40/1 40/41/1 37/42/1
f 41/43/1 37/42/1 33/44/1
f 40/41/1 42/45/1 35/46/1
f 47/37/1 44/47/1 43/40/1
f 41/43/1 47/37/1 43/40/1
f 44/47/1 46/35/1 42/45/1
f 48/33/1 39/48/1 36/34/1
f 34/36/1 38/39/1 47/37/1
f 38/39/1 39/48/1 48/33/1
f 43/40/1 44/47/1 40/41/1
f 41/43/1 43/40/1 37/42/1
f 40/41/1 44/47/1 42/45/1
f 47/37/1 48/33/1 44/47/1
f 41/43/1 45/38/1 47/37/1
f 44/47/1 48/33/1 46/35/1
