# Blender 4.1.0
# www.blender.org
mtllib FourRooms_Walls.mtl
o Walls.002
v 1.999999 10.000002 0.000000
v -1.859946 9.999999 0.000000
v 2.000001 4.000001 0.000000
v -1.859944 3.999999 0.000000
v 2.000000 7.148501 0.000000
v -1.859945 7.148498 0.000000
v -1.859945 5.861498 0.000000
v 2.000000 5.861501 0.000000
v 1.150082 10.000000 0.000000
v 1.150085 4.000000 0.000000
v -0.156418 10.000000 0.000000
v -0.156415 4.000000 0.000000
v 1.999999 10.000002 3.000000
v -1.859946 9.999999 3.000000
v 2.000001 4.000001 3.000000
v 2.000000 7.148501 3.000000
v -1.859945 7.148498 3.000000
v 2.000000 5.861501 3.000000
v 1.150082 10.000000 3.000000
v 1.150085 4.000000 3.000000
v -0.156418 10.000000 3.000000
v -1.859944 3.999999 3.000000
v -1.859945 5.861498 3.000000
v -0.156415 4.000000 3.000000
v -2.000000 7.148500 0.000000
v -2.000000 5.861501 0.000000
v -2.000000 7.148500 3.000000
v -2.000000 5.861501 3.000000
v -3.000000 -2.000000 0.000000
v 3.000000 -2.000000 0.000000
v -3.000000 3.862133 0.000000
v 3.000000 3.862133 0.000000
v -3.000000 0.850917 0.000000
v 3.000000 0.850917 0.000000
v 3.000000 2.137918 0.000000
v -3.000000 2.150417 0.000000
v -0.149917 -2.000000 0.000000
v -0.149917 3.862133 0.000000
v 1.156583 -2.000000 0.000000
v 1.156583 3.862133 0.000000
v -3.000000 -2.000000 3.000000
v 3.000000 -2.000000 3.000000
v 3.000000 3.862133 3.000000
v -3.000000 0.850917 3.000000
v 3.000000 0.850917 3.000000
v 3.000000 2.137918 3.000000
v -0.149917 -2.000000 3.000000
v 1.156583 -2.000000 3.000000
v 1.156583 3.862133 3.000000
v -3.000000 3.862133 3.000000
v -3.000000 2.150417 3.000000
v -0.149917 3.862133 3.000000
v -0.156415 4.000000 0.000000
v 1.150084 4.000000 0.000000
v 1.150084 4.000000 3.000000
v -0.156415 4.000000 3.000000
v -2.000001 10.000001 0.000000
v -8.000001 9.999999 0.000000
v -1.999999 5.133628 0.000000
v -7.999999 5.133626 0.000000
v -2.000000 7.148501 0.000000
v -8.000000 7.148498 0.000000
v -8.000000 5.861498 0.000000
v -2.000000 5.861501 0.000000
v -4.830595 10.000000 0.000000
v -4.830592 5.133627 0.000000
v -6.137095 10.000000 0.000000
v -6.137092 5.133627 0.000000
v -2.000001 10.000001 3.000000
v -8.000001 9.999999 3.000000
v -7.999999 5.133626 3.000000
v -2.000000 7.148501 3.000000
v -8.000000 7.148498 3.000000
v -8.000000 5.861498 3.000000
v -4.830595 10.000000 3.000000
v -6.137095 10.000000 3.000000
v -6.137092 5.133627 3.000000
v -1.999999 5.133628 3.000000
v -2.000000 5.861501 3.000000
v -4.830592 5.133627 3.000000
v -4.824095 4.994022 0.000000
v -6.130595 4.994021 0.000000
v -6.130595 4.994021 3.000000
v -4.824095 4.994022 3.000000
v -9.000001 4.994020 0.000000
v -8.999999 -1.000002 0.000000
v -3.168089 4.994022 0.000000
v -3.168086 -0.999998 0.000000
v -6.130596 4.994021 0.000000
v -6.130591 -1.000000 0.000000
v -4.843592 -1.000000 0.000000
v -4.843596 4.994021 0.000000
v -9.000000 2.150915 0.000000
v -3.168088 2.150918 0.000000
v -8.999999 0.844415 0.000000
v -3.168087 0.844419 0.000000
v -9.000001 4.994020 3.000000
v -8.999999 -1.000002 3.000000
v -3.168086 -0.999998 3.000000
v -6.130596 4.994021 3.000000
v -6.130591 -1.000000 3.000000
v -4.843592 -1.000000 3.000000
v -9.000000 2.150915 3.000000
v -8.999999 0.844415 3.000000
v -3.168087 0.844419 3.000000
v -3.168089 4.994022 3.000000
v -4.843596 4.994021 3.000000
v -3.168088 2.150918 3.000000
v -3.000000 2.150417 0.000000
v -3.000000 0.850917 0.000000
v -3.000000 0.850917 3.000000
v -3.000000 2.150417 3.000000
vn -0.0000 1.0000 -0.0000
vn -0.0000 -1.0000 -0.0000
vn -1.0000 -0.0000 -0.0000
vn 1.0000 -0.0000 -0.0000
vn 0.9989 0.0471 -0.0000
vn -0.9989 -0.0471 -0.0000
vn -0.9989 -0.0465 -0.0000
vn 0.9989 0.0465 -0.0000
vn -0.0030 -1.0000 -0.0000
vn -0.0386 0.9993 -0.0000
vt -0.577769 -0.602493
vt -0.089989 -0.464302
vt -0.577769 -0.464302
vt -0.577769 0.511257
vt -0.089989 0.649448
vt -0.577769 0.649448
vt -0.577769 0.047623
vt -0.089989 0.511257
vt -0.089989 0.861876
vt -0.577769 0.861876
vt -0.577769 -0.161635
vt -0.089989 0.047623
vt -0.089989 1.138858
vt -0.577769 1.138858
vt -0.089989 -0.161635
vt -0.089989 1.602493
vt -0.577768 1.602493
vt 1.048995 -0.602493
vt 1.536775 -0.299826
vt 1.048995 -0.299826
vt 1.536775 -0.022843
vt 1.048995 -0.022843
vt 1.415108 -0.021592
vt 1.437880 0.466187
vt 1.415108 0.466187
vt 1.437484 1.022247
vt 1.414711 0.534468
vt 1.437484 0.534468
vt -0.089989 -0.602493
vt 1.536775 -0.602493
vt 1.437880 -0.021592
vt 1.414711 1.022247
vt 0.000000 0.000000
s 0
usemtl beige_wall_001.003
f 10/1/1 15/2/1 3/3/1
f 1/4/2 19/5/2 9/6/2
f 5/7/3 13/8/3 1/4/3
f 9/6/2 21/9/2 11/10/2
f 8/11/3 16/12/3 5/7/3
f 11/10/2 14/13/2 2/14/2
f 3/3/3 18/15/3 8/11/3
f 2/14/4 17/16/4 6/17/4
f 7/18/4 22/19/4 4/20/4
f 4/20/1 24/21/1 12/22/1
f 7/23/1 28/24/1 23/25/1
f 17/26/2 25/27/2 6/28/2
f 10/1/1 20/29/1 15/2/1
f 1/4/2 13/8/2 19/5/2
f 5/7/3 16/12/3 13/8/3
f 9/6/2 19/5/2 21/9/2
f 8/11/3 18/15/3 16/12/3
f 11/10/2 21/9/2 14/13/2
f 3/3/3 15/2/3 18/15/3
f 2/14/4 14/13/4 17/16/4
f 7/18/4 23/30/4 22/19/4
f 4/20/1 22/19/1 24/21/1
f 7/23/1 26/31/1 28/24/1
f 17/26/2 27/32/2 25/27/2
usemtl beige_wall_001
f 35/33/3 43/33/3 32/33/3
f 29/33/1 47/33/1 37/33/1
f 37/33/1 48/33/1 39/33/1
f 33/33/4 41/33/4 29/33/4
f 34/33/3 46/33/3 35/33/3
f 39/33/1 42/33/1 30/33/1
f 32/33/2 49/33/2 40/33/2
f 30/33/3 45/33/3 34/33/3
f 38/33/2 50/33/2 31/33/2
f 31/33/4 51/33/4 36/33/4
f 38/33/5 56/33/5 52/33/5
f 49/33/6 54/33/6 40/33/6
f 35/33/3 46/33/3 43/33/3
f 29/33/1 41/33/1 47/33/1
f 37/33/1 47/33/1 48/33/1
f 33/33/4 44/33/4 41/33/4
f 34/33/3 45/33/3 46/33/3
f 39/33/1 48/33/1 42/33/1
f 32/33/2 43/33/2 49/33/2
f 30/33/3 42/33/3 45/33/3
f 38/33/2 52/33/2 50/33/2
f 31/33/4 50/33/4 51/33/4
f 38/33/5 53/33/5 56/33/5
f 49/33/6 55/33/6 54/33/6
usemtl beige_wall_001.002
f 67/33/2 70/33/2 58/33/2
f 60/33/1 77/33/1 68/33/1
f 58/33/4 73/33/4 62/33/4
f 63/33/4 71/33/4 60/33/4
f 57/33/2 75/33/2 65/33/2
f 61/33/3 69/33/3 57/33/3
f 65/33/2 76/33/2 67/33/2
f 62/33/4 74/33/4 63/33/4
f 59/33/3 79/33/3 64/33/3
f 66/33/1 78/33/1 59/33/1
f 66/33/7 84/33/7 80/33/7
f 77/33/8 82/33/8 68/33/8
f 67/33/2 76/33/2 70/33/2
f 60/33/1 71/33/1 77/33/1
f 58/33/4 70/33/4 73/33/4
f 63/33/4 74/33/4 71/33/4
f 57/33/2 69/33/2 75/33/2
f 61/33/3 72/33/3 69/33/3
f 65/33/2 75/33/2 76/33/2
f 62/33/4 73/33/4 74/33/4
f 59/33/3 78/33/3 79/33/3
f 66/33/1 80/33/1 78/33/1
f 66/33/7 81/33/7 84/33/7
f 77/33/8 83/33/8 82/33/8
usemtl beige_wall_001.001
f 93/33/4 104/33/4 95/33/4
f 89/33/2 97/33/2 85/33/2
f 90/33/1 102/33/1 91/33/1
f 95/33/4 98/33/4 86/33/4
f 88/33/3 105/33/3 96/33/3
f 86/33/1 101/33/1 90/33/1
f 91/33/1 99/33/1 88/33/1
f 85/33/4 103/33/4 93/33/4
f 94/33/3 106/33/3 87/33/3
f 87/33/2 107/33/2 92/33/2
f 94/33/9 112/33/9 108/33/9
f 105/33/10 110/33/10 96/33/10
f 93/33/4 103/33/4 104/33/4
f 89/33/2 100/33/2 97/33/2
f 90/33/1 101/33/1 102/33/1
f 95/33/4 104/33/4 98/33/4
f 88/33/3 99/33/3 105/33/3
f 86/33/1 98/33/1 101/33/1
f 91/33/1 102/33/1 99/33/1
f 85/33/4 97/33/4 103/33/4
f 94/33/3 108/33/3 106/33/3
f 87/33/2 106/33/2 107/33/2
f 94/33/9 109/33/9 112/33/9
f 105/33/10 111/33/10 110/33/10
