# Blender 4.1.0
# www.blender.org
mtllib FourRooms_Walls.mtl
o Walls.004
v -3.000000 -2.000000 0.000000
v 3.000000 -2.000000 0.000000
v -3.000000 3.862133 0.000000
v 3.000000 3.862133 0.000000
v -3.000000 0.850917 0.000000
v 3.000000 0.850917 0.000000
v 3.000000 2.137917 0.000000
v -3.000000 2.150417 0.000000
v -0.149917 -2.000000 0.000000
v -0.149917 3.862133 0.000000
v 1.156583 -2.000000 0.000000
v 1.156583 3.862133 0.000000
v -3.000000 -2.000000 3.000000
v 3.000000 -2.000000 3.000000
v 3.000000 3.862133 3.000000
v -3.000000 0.850917 3.000000
v 3.000000 0.850917 3.000000
v 3.000000 2.137917 3.000000
v -0.149917 -2.000000 3.000000
v 1.156583 -2.000000 3.000000
v 1.156583 3.862133 3.000000
v -3.000000 3.862133 3.000000
v -3.000000 2.150417 3.000000
v -0.149917 3.862133 3.000000
v -0.156415 4.000000 0.000000
v 1.150084 4.000000 0.000000
v 1.150084 4.000000 3.000000
v -0.156415 4.000000 3.000000
vn -1.0000 -0.0000 -0.0000
vn -0.0000 1.0000 -0.0000
vn 1.0000 -0.0000 -0.0000
vn -0.0000 -1.0000 -0.0000
vn 0.9989 0.0471 -0.0000
vn -0.9989 -0.0471 -0.0000
vt 0.317166 0.977215
vt 0.682027 1.186916
vt 0.317166 1.186915
vt 0.317166 -0.255763
vt 0.682027 0.090866
vt 0.317166 0.090866
vt 0.682027 0.249763
vt 0.317166 0.249763
vt 0.317166 -0.602493
vt 0.682027 -0.255763
vt 0.317166 0.820690
vt 0.682027 0.977215
vt 0.682027 0.473960
vt 0.317166 0.473960
vt 0.682027 1.411113
vt 0.317166 1.411113
vt 0.682027 0.820690
vt 1.048995 -0.021592
vt 1.413857 0.325036
vt 1.048995 0.325036
vt 1.413857 0.533216
vt 1.048995 0.533216
vt 1.454899 1.084677
vt 1.471685 1.449539
vt 1.454899 1.449539
vt 1.475623 0.899329
vt 1.458837 0.534468
vt 1.475623 0.534468
vt 0.682027 -0.602493
vt 1.413857 -0.021592
vt 1.471685 1.084677
vt 1.458837 0.899329
s 0
usemtl beige_wall_001
f 7/1/1 15/2/1 4/3/1
f 1/4/2 19/5/2 9/6/2
f 9/6/2 20/7/2 11/8/2
f 5/9/3 13/10/3 1/4/3
f 6/11/1 18/12/1 7/1/1
f 11/8/2 14/13/2 2/14/2
f 4/3/4 21/15/4 12/16/4
f 2/14/1 17/17/1 6/11/1
f 10/18/4 22/19/4 3/20/4
f 3/20/3 23/21/3 8/22/3
f 10/23/5 28/24/5 24/25/5
f 21/26/6 26/27/6 12/28/6
f 7/1/1 18/12/1 15/2/1
f 1/4/2 13/10/2 19/5/2
f 9/6/2 19/5/2 20/7/2
f 5/9/3 16/29/3 13/10/3
f 6/11/1 17/17/1 18/12/1
f 11/8/2 20/7/2 14/13/2
f 4/3/4 15/2/4 21/15/4
f 2/14/1 14/13/1 17/17/1
f 10/18/4 24/30/4 22/19/4
f 3/20/3 22/19/3 23/21/3
f 10/23/5 25/31/5 28/24/5
f 21/26/6 27/32/6 26/27/6
o Walls.005
v 1.999999 10.000002 0.000000
v -1.859946 9.999999 0.000000
v 2.000001 4.000001 0.000000
v -1.859944 3.999999 0.000000
v 2.000000 7.148501 0.000000
v -1.859945 7.148498 0.000000
v -1.859945 5.861498 0.000000
v 2.000000 5.861501 0.000000
v 1.150082 10.000000 0.000000
v 1.150085 4.000000 0.000000
v -0.156418 10.000000 0.000000
v -0.156415 4.000000 0.000000
v 1.999999 10.000002 3.000000
v -1.859946 9.999999 3.000000
v 2.000001 4.000001 3.000000
v 2.000000 7.148501 3.000000
v -1.859945 7.148498 3.000000
v 2.000000 5.861501 3.000000
v 1.150082 10.000000 3.000000
v 1.150085 4.000000 3.000000
v -0.156418 10.000000 3.000000
v -1.859944 3.999999 3.000000
v -1.859945 5.861498 3.000000
v -0.156415 4.000000 3.000000
v -2.000000 7.148500 0.000000
v -2.000000 5.861501 0.000000
v -2.000000 7.148500 3.000000
v -2.000000 5.861501 3.000000
vn -0.0000 1.0000 -0.0000
vn -0.0000 -1.0000 -0.0000
vn -1.0000 -0.0000 -0.0000
vn 1.0000 -0.0000 -0.0000
vt -0.577769 -0.602493
vt -0.089989 -0.464302
vt -0.577769 -0.464302
vt -0.577769 0.511257
vt -0.089989 0.649448
vt -0.577769 0.649448
vt -0.577769 0.047623
vt -0.089989 0.511257
vt -0.089989 0.861876
vt -0.577769 0.861876
vt -0.577769 -0.161635
vt -0.089989 0.047623
vt -0.089989 1.138858
vt -0.577769 1.138858
vt -0.089989 -0.161635
vt -0.089989 1.602493
vt -0.577768 1.602493
vt 1.048995 -0.602493
vt 1.536775 -0.299826
vt 1.048995 -0.299826
vt 1.536775 -0.022843
vt 1.048995 -0.022843
vt 1.415108 -0.021592
vt 1.437880 0.466187
vt 1.415108 0.466187
vt 1.437484 1.022247
vt 1.414711 0.534468
vt 1.437484 0.534468
vt -0.089989 -0.602493
vt 1.536775 -0.602493
vt 1.437880 -0.021592
vt 1.414711 1.022247
s 0
usemtl beige_wall_001
f 38/33/7 43/34/7 31/35/7
f 29/36/8 47/37/8 37/38/8
f 33/39/9 41/40/9 29/36/9
f 37/38/8 49/41/8 39/42/8
f 36/43/9 44/44/9 33/39/9
f 39/42/8 42/45/8 30/46/8
f 31/35/9 46/47/9 36/43/9
f 30/46/10 45/48/10 34/49/10
f 35/50/10 50/51/10 32/52/10
f 32/52/7 52/53/7 40/54/7
f 35/55/7 56/56/7 51/57/7
f 45/58/8 53/59/8 34/60/8
f 38/33/7 48/61/7 43/34/7
f 29/36/8 41/40/8 47/37/8
f 33/39/9 44/44/9 41/40/9
f 37/38/8 47/37/8 49/41/8
f 36/43/9 46/47/9 44/44/9
f 39/42/8 49/41/8 42/45/8
f 31/35/9 43/34/9 46/47/9
f 30/46/10 42/45/10 45/48/10
f 35/50/10 51/62/10 50/51/10
f 32/52/7 50/51/7 52/53/7
f 35/55/7 54/63/7 56/56/7
f 45/58/8 55/64/8 53/59/8
o Walls.006
v -2.000001 10.000001 0.000000
v -8.000001 9.999999 0.000000
v -1.999999 5.133628 0.000000
v -7.999999 5.133626 0.000000
v -2.000000 7.148501 0.000000
v -8.000000 7.148498 0.000000
v -8.000000 5.861498 0.000000
v -2.000000 5.861501 0.000000
v -4.830595 10.000000 0.000000
v -4.830593 5.133627 0.000000
v -6.137095 10.000000 0.000000
v -6.137092 5.133626 0.000000
v -2.000001 10.000001 3.000000
v -8.000001 9.999999 3.000000
v -7.999999 5.133626 3.000000
v -2.000000 7.148501 3.000000
v -8.000000 7.148498 3.000000
v -8.000000 5.861498 3.000000
v -4.830595 10.000000 3.000000
v -6.137095 10.000000 3.000000
v -6.137092 5.133626 3.000000
v -1.999999 5.133628 3.000000
v -2.000000 5.861501 3.000000
v -4.830593 5.133627 3.000000
v -4.824096 4.994022 0.000000
v -6.130595 4.994021 0.000000
v -6.130595 4.994021 3.000000
v -4.824096 4.994022 3.000000
vn -0.0000 -1.0000 -0.0000
vn -0.0000 1.0000 -0.0000
vn 1.0000 -0.0000 -0.0000
vn -1.0000 -0.0000 -0.0000
vn -0.9989 -0.0465 -0.0000
vn 0.9989 0.0465 -0.0000
vt -0.088738 0.340157
vt 0.315914 0.591434
vt -0.088738 0.591434
vt -0.088738 1.247830
vt 0.315915 1.499106
vt -0.088738 1.499106
vt 0.315915 0.976056
vt -0.088738 0.976056
vt -0.088738 1.149652
vt 0.315914 1.247830
vt -0.088738 -0.217871
vt 0.315914 0.163931
vt -0.088738 0.163931
vt -0.088738 -0.602493
vt 0.315914 -0.217871
vt 0.315914 0.340157
vt 0.315915 1.149652
vt 1.453648 1.182856
vt 1.048995 1.084677
vt 1.453648 1.084677
vt 1.453648 1.564658
vt 1.048995 1.182856
vt 1.438735 0.534468
vt 1.457586 0.939120
vt 1.438735 0.939120
vt 1.457982 0.383060
vt 1.439131 -0.021592
vt 1.457982 -0.021592
vt 0.315914 -0.602493
vt 1.048995 1.564658
vt 1.457586 0.534468
vt 1.439131 0.383060
s 0
usemtl beige_wall_001
f 67/65/11 70/66/11 58/67/11
f 60/68/12 77/69/12 68/70/12
f 58/67/13 73/71/13 62/72/13
f 63/73/13 71/74/13 60/68/13
f 57/75/11 75/76/11 65/77/11
f 61/78/14 69/79/14 57/75/14
f 65/77/11 76/80/11 67/65/11
f 62/72/13 74/81/13 63/73/13
f 59/82/14 79/83/14 64/84/14
f 66/85/12 78/86/12 59/82/12
f 66/87/15 84/88/15 80/89/15
f 77/90/16 82/91/16 68/92/16
f 67/65/11 76/80/11 70/66/11
f 60/68/12 71/74/12 77/69/12
f 58/67/13 70/66/13 73/71/13
f 63/73/13 74/81/13 71/74/13
f 57/75/11 69/79/11 75/76/11
f 61/78/14 72/93/14 69/79/14
f 65/77/11 75/76/11 76/80/11
f 62/72/13 73/71/13 74/81/13
f 59/82/14 78/86/14 79/83/14
f 66/85/12 80/94/12 78/86/12
f 66/87/15 81/95/15 84/88/15
f 77/90/16 83/96/16 82/91/16
o Walls.007
v -9.000002 4.994020 0.000000
v -8.999998 -1.000002 0.000000
v -3.168090 4.994022 0.000000
v -3.168086 -0.999998 0.000000
v -6.130596 4.994021 0.000000
v -6.130592 -1.000000 0.000000
v -4.843592 -0.999999 0.000000
v -4.843596 4.994021 0.000000
v -9.000000 2.150914 0.000000
v -3.168088 2.150918 0.000000
v -8.999999 0.844414 0.000000
v -3.168087 0.844419 0.000000
v -9.000002 4.994020 3.000000
v -8.999998 -1.000002 3.000000
v -3.168086 -0.999998 3.000000
v -6.130596 4.994021 3.000000
v -6.130592 -1.000000 3.000000
v -4.843592 -0.999999 3.000000
v -9.000000 2.150914 3.000000
v -8.999999 0.844414 3.000000
v -3.168087 0.844419 3.000000
v -3.168090 4.994022 3.000000
v -4.843596 4.994021 3.000000
v -3.168088 2.150918 3.000000
v -3.000000 2.150417 0.000000
v -2.999999 0.850917 0.000000
v -2.999999 0.850917 3.000000
v -3.000000 2.150417 3.000000
vn 1.0000 -0.0000 -0.0000
vn -0.0000 -1.0000 -0.0000
vn -0.0000 1.0000 -0.0000
vn -1.0000 -0.0000 -0.0000
vn -0.0030 -1.0000 -0.0000
vn -0.0386 0.9993 -0.0000
vt 1.047744 0.712891
vt 0.683279 0.554167
vt 1.047744 0.554167
vt 1.047744 1.406894
vt 0.683279 1.058295
vt 1.047744 1.058295
vt 1.047744 -0.018508
vt 0.683279 -0.174863
vt 1.047744 -0.174863
vt 0.683279 0.330092
vt 1.047744 0.330092
vt 1.047744 -0.378417
vt 0.683279 -0.602493
vt 1.047744 -0.602493
vt 0.683279 -0.018508
vt 0.683279 -0.378417
vt 0.683279 0.712891
vt 1.048995 0.534468
vt 1.413460 0.879871
vt 1.048995 0.879872
vt 1.413460 1.083426
vt 1.048995 1.083426
vt 1.472936 1.084677
vt 1.493357 1.449142
vt 1.472936 1.449142
vt 1.479669 0.342873
vt 1.459233 -0.021592
vt 1.479669 -0.021592
vt 0.683279 1.406894
vt 1.413460 0.534468
vt 1.493357 1.084677
vt 1.459233 0.342873
s 0
usemtl beige_wall_001
f 93/97/17 104/98/17 95/99/17
f 89/100/18 97/101/18 85/102/18
f 90/103/19 102/104/19 91/105/19
f 95/99/17 98/106/17 86/107/17
f 88/108/20 105/109/20 96/110/20
f 86/107/19 101/111/19 90/103/19
f 91/105/19 99/112/19 88/108/19
f 85/102/17 103/113/17 93/97/17
f 94/114/20 106/115/20 87/116/20
f 87/116/18 107/117/18 92/118/18
f 94/119/21 112/120/21 108/121/21
f 105/122/22 110/123/22 96/124/22
f 93/97/17 103/113/17 104/98/17
f 89/100/18 100/125/18 97/101/18
f 90/103/19 101/111/19 102/104/19
f 95/99/17 104/98/17 98/106/17
f 88/108/20 99/112/20 105/109/20
f 86/107/19 98/106/19 101/111/19
f 91/105/19 102/104/19 99/112/19
f 85/102/17 97/101/17 103/113/17
f 94/114/20 108/126/20 106/115/20
f 87/116/18 106/115/18 107/117/18
f 94/119/21 109/127/21 112/120/21
f 105/122/22 111/128/22 110/123/22
